<?xml version="1.0" standalone="no"?>
<!DOCTYPE svg PUBLIC "-//W3C//DTD SVG 1.1//EN" "http://www.w3.org/Graphics/SVG/1.1/DTD/svg11.dtd" >
<svg xmlns="http://www.w3.org/2000/svg">
<metadata>
This is a custom SVG font generated by IcoMoon.
<iconset grid="16"></iconset>
</metadata>
<defs>
<font id="icomoon" horiz-adv-x="512" >
<font-face units-per-em="512" ascent="480" descent="-32" />
<missing-glyph horiz-adv-x="512" />
<glyph class="hidden" unicode="&#xf001;" d="M0,480L 512 -32L0 -32 z" horiz-adv-x="0" />
<glyph unicode="&#xf000;" d="M0,480L 512-32L0-32 z" horiz-adv-x="0" />
<glyph unicode="&#x65;" d="M 1.143,48.111l 150.204,150.187c-14.353,26.812-22.528,57.446-22.528,89.975c0,105.506, 85.538,191.010, 191.027,191.010s 191.010-85.504, 191.010-191.010
	c0-105.489-85.521-191.010-191.010-191.010c-32.102,0-62.31,7.97-88.866,21.931l-150.477-150.477L 1.143,48.111z M 447.181,288.273
	c0,70.212-57.122,127.3-127.317,127.3s-127.317-57.105-127.317-127.3c0-70.212, 57.122-127.3, 127.317-127.3S 447.181,218.061, 447.181,288.273z" data-tags="magnifying_glass" />
<glyph unicode="&#x72;" d="M 373.026,260.471L 373.026,401.681L0,401.681L0,46.336L 373.026,46.336L 373.026,187.529L 512,53.572L 512,394.428 z" data-tags="video_camera" />
<glyph unicode="&#x74;" d="M 256,480C 114.62,480,0,365.38,0,224s 114.62-256, 256-256s 256,114.62, 256,256S 397.38,480, 256,480z M 399.599,128.666l-48.265-48.265L 256,175.735
		l-95.334-95.334l-48.265,48.265L 207.735,224L 112.401,319.334l 48.265,48.265L 256,272.265l 95.334,95.334l 48.265-48.265L 304.265,224L 399.599,128.666z" data-tags="close" />
<glyph unicode="&#x79;" d="M 375.467,375.467L 375.467,428.8 L 136.533,428.8 l0-53.333 L0,375.467 L0,19.2 l 512,0 L 512,375.467 L 375.467,375.467 z M 256,98.133c-60.092,0-108.8,48.708-108.8,108.8c0,60.092, 48.708,108.8, 108.8,108.8
		c 60.092,0, 108.8-48.708, 108.8-108.8C 364.8,146.842, 316.092,98.133, 256,98.133z" data-tags="photo" />
<glyph unicode="&#x75;" d="M 256,480C 114.62,480,0,365.38,0,224s 114.62-256, 256-256c 141.363,0, 256,114.62, 256,256S 397.363,480, 256,480z M 293.871,50.756
		c-9.097-8.431-21.777-12.629-38.11-12.629c-16.503,0-29.423,4.198-38.758,12.629c-9.335,8.397-13.995,20.122-13.995,35.123
		c0,15.172, 4.506,26.948, 13.5,35.379c 8.994,8.397, 22.084,12.612, 39.253,12.612c 16.998,0, 29.85-4.215, 38.622-12.612
		c 8.738-8.431, 13.141-20.224, 13.141-35.379C 307.507,70.861, 302.933,59.153, 293.871,50.756z M 297.233,173.363l-82.483,0 L 202.001,409.873l 107.998,0 
		L 297.233,173.363z" data-tags="alert" />
<glyph unicode="&#x69;" d="M 512.017,126.174L 451.686,65.826L 256.017,261.495L 60.314,65.826L-0.017,126.191L 256.017,382.174 	z" data-tags="thin_arrow_up" />
<glyph unicode="&#x6f;" d="M 158.174-32L 97.843,28.331L 293.495,224L 97.843,419.686L 158.191,480.017L 414.174,224 	z" data-tags="thin_arrow_right" />
<glyph unicode="&#x70;" d="M 353.826,480.017L 414.174,419.686L 218.505,224.017L 414.174,28.314L 353.809-32.017L 97.826,224.017 	z" data-tags="thin_arrow_left" />
<glyph unicode="&#x61;" d="M0,321.826L 60.348,382.174L 256,186.505L 451.703,382.174L 512.034,321.809L 256,65.826 	z" data-tags="thin_arrow_down" />
<glyph unicode="&#x73;" d="M 174.499,480C 77.662,480,-0.842,401.496,-0.842,304.654c0-150.198, 175.341-172.847, 175.341-336.654c0,163.812, 175.346,186.456, 175.346,336.654
	C 349.841,401.496, 271.337,480, 174.499,480z M 208.198,247.24l0-93.794 L 140.797,153.446 L 140.797,247.24 L 47.002,247.24 L 47.002,314.643 l 93.794,0 L 140.797,408.436 l 67.402,0 l0-93.794 L 301.993,314.643 l0-67.402 
	L 208.198,247.24 z" horiz-adv-x="349" data-tags="add_location_map_pin" />
<glyph unicode="&#x77;" d="M 0,480L 512,480L 512,366.234L 0,366.234zM 0,280.9L 512,280.9L 512,167.1L 0,167.1zM 0,81.766L 512,81.766L 512-32L 0-32z" data-tags="menu" />
<glyph unicode="&#x71;" d="M 256,473.805c-94.487,0-171.054-76.624-171.054-171.11C 84.946,156.166, 256,134.059, 256-25.805c0,159.863, 171.054,181.97, 171.054,328.499
	C 427.054,397.181, 350.504,473.805, 256,473.805z M 256,239.371c-40.118,0-72.63,32.512-72.63,72.613c0,40.101, 32.495,72.63, 72.63,72.63
	s 72.647-32.512, 72.647-72.63C 328.647,271.883, 296.118,239.371, 256,239.371z" data-tags="location_map_pin" />
<glyph unicode="&#x67;" d="M 483.994,400.674L 279.745,44.089c-24.821-43.31-68.705-64.381-96.324-44.555
		c-1.166,0.796-1.946,1.963-2.97,2.89c-17.482,9.068-35.823,24.058-51.274,42.718l-99.385,128.41c-19.109,24.678-14.512,59.335, 7.407,77.215
		c 20.099,16.412, 49.328,13.966, 67.618-5.268l 92.365-96.944c 2.378-2.554, 4.887-5.939, 7.344-9.432L 412.319,446.043
		c 14.126,20.85, 40.482,27.472, 59.494,15.565C 490.94,449.65, 496.64,422.736, 483.994,400.674z" data-tags="checkmark" />
<glyph unicode="&#x66;" d="M 510.225,281.549c-0.956,0-27.307,0-58.539,0s-38.673,18.057-16.623,40.141s 40.721,40.687, 41.37,41.37c 0.683,0.683, 0.683,1.809,0,2.458
			c-0.683,0.683-18.466,18.466-39.492,39.492c-21.026,21.026-38.775,38.775-39.424,39.458c-0.683,0.683-1.843,0.683-2.492,0
			c-0.683-0.683-19.285-19.319-41.335-41.37C 331.605,381.047, 313.549,388.523, 313.549,419.755c0,31.232,0,57.549,0,58.505C 313.549,479.215, 312.798,480, 311.808,480
			S 285.73,480, 256,480C 226.236,480, 201.148,480, 200.158,480S 198.451,479.215, 198.451,478.225c0-0.922,0-27.238,0-58.505c0-31.198-18.057-38.707-40.141-16.623
			S 117.623,443.785, 116.941,444.501c-0.683,0.683-1.809,0.683-2.492,0C 113.801,443.785, 96.017,426.035, 74.991,405.043C 53.965,383.983, 36.181,366.234, 35.499,365.551
			c-0.683-0.683-0.683-1.809,0-2.458s 19.319-19.285, 41.37-41.37s 14.575-40.141-16.623-40.141s-57.549,0-58.505,0S0,280.798,0,279.842
			c0-0.956,0-26.078,0-55.808S0,169.148,0,168.192c0-0.956, 0.785-1.775, 1.775-1.775s 27.273,0, 58.505,0c 31.232,0, 38.707-18.091, 16.657-40.141
			c-22.084-22.050-40.721-40.687-41.37-41.335c-0.683-0.683-0.683-1.809,0-2.492c 0.683-0.683, 18.466-18.432, 39.458-39.458
			c 21.026-21.026, 38.775-38.81, 39.458-39.458c 0.683-0.683, 1.809-0.683, 2.458,0c 0.683,0.683, 19.319,19.285, 41.37,41.335
			c 22.084,22.084, 40.141,14.575, 40.141-16.623c0-31.198,0-57.515,0-58.505S 199.202-32, 200.158-32s 26.078,0, 55.808,0c 29.764,0, 54.818,0, 55.842,0
			s 1.775,0.751, 1.775,1.775s0,27.273,0,58.505c0,31.232, 18.057,38.707, 40.141,16.657c 22.050-22.084, 40.687-40.721, 41.335-41.37
			c 0.683-0.683, 1.809-0.683, 2.492,0c 0.683,0.683, 18.432,18.466, 39.424,39.458c 21.060,21.060, 38.81,38.775, 39.492,39.458
			c 0.683,0.683, 0.683,1.809,0,2.492c-0.683,0.683-19.285,19.285-41.37,41.335c-22.050,22.050-14.575,40.141, 16.623,40.141s 57.549,0, 58.539,0
			c 0.922,0, 1.775,0.751, 1.775,1.775c0,0.922,0,26.078,0,55.808s0,54.818,0,55.808C 512,280.798, 511.215,281.549, 510.225,281.549z M 259.823,139.861
			c-47.479,0-85.982,38.434-85.982,85.948c0,47.479, 38.468,85.982, 85.982,85.982c 47.514,0, 85.982-38.468, 85.982-85.982
			C 345.805,178.295, 307.337,139.861, 259.823,139.861z" data-tags="cogwheel" />
<glyph unicode="&#x64;" d="M 256,480C 114.62,480,0,365.38,0,224s 114.62-256, 256-256s 256,114.62, 256,256S 397.38,480, 256,480z M 198.485,99.857
				L 198.485,348.143 l 181.692-124.143L 198.485,99.857z" data-tags="video" />
<glyph unicode="&#x68;" d="M 0,248.832L 512,248.832L 512,199.168L 0,199.168zM 231.168,480L 280.832,480L 280.832-32L 231.168-32z" data-tags="plus_add" />
<glyph unicode="&#x6a;" d="M 50.381,473.771L 505.771,18.381L 461.602-25.771L 6.229,429.619zM 505.788,429.619L 50.415-25.771L 6.246,18.381L 461.636,473.771z" data-tags="x_close" />
<glyph unicode="&#x6b;" d="M 256,68.745c-140.863,0-251.221,68.204-251.221,155.255c0,87.046, 110.359,155.255, 251.221,155.255c 140.88,0, 251.238-68.204, 251.238-155.255
		C 507.238,136.954, 396.88,68.745, 256,68.745z M 256,324.324C 140.334,324.324, 59.711,271.445, 59.711,224c0-47.445, 80.623-100.324, 196.289-100.324
		S 452.306,176.555, 452.306,224C 452.306,271.445, 371.666,324.324, 256,324.324zM 256,77.665c-80.697,0-146.358,65.644-146.358,146.335S 175.286,370.358, 256,370.358c 80.714,0, 146.375-65.661, 146.375-146.358
		S 336.697,77.665, 256,77.665z M 256,315.426c-50.409,0-91.426-41.017-91.426-91.426c0-50.409, 41.017-91.409, 91.426-91.409
		c 50.409,0, 91.443,41, 91.443,91.409C 347.426,274.409, 306.409,315.426, 256,315.426z" data-tags="eye_browse" />
<glyph unicode="&#x6c;" d="M 181.271,375.222l 65.121,65.104l0-286.885 l 19.217,0 L 265.609,440.343 l 65.138-65.121l 13.574,13.574
			l-74.729,74.729l0,0L 256,477.116l-13.591-13.574l0,0l-74.729-74.729L 181.271,375.222z M 304.014,335.969l0-19.2 l 115.342,0 l0-326.645 L 92.661-9.865 L 92.661,316.78 l 115.308,0 
			L 207.969,335.969 L 73.461,335.969 L 73.461-29.099 l 365.067,0 L 438.539,335.969 L 304.014,335.969 z" data-tags="share" />
<glyph unicode="&#x7a;" d="M 420.284,296.841L 420.284,456.647 l-54.107,0 c0,0, 10.308-190.737-162.378-190.737l0-188.114 l 59.238,0 l0-36.062 l 244.873,0 L 507.921,296.841 L 420.284,296.841 zM 4.062,53.055L 15.155,47.252l0-55.398 l 125.156-0.512l0,53.464 l 13.266,6.793l0,238.080 l-149.527,0.637L 4.062,53.055 z M 76.038,68.83
		c 14.882,0, 26.903-12.021, 26.903-26.886s-12.021-26.903-26.903-26.903c-14.848,0-26.903,12.038-26.903,26.903S 61.19,68.83, 76.038,68.83z" data-tags="thumbsup_like" />
<glyph unicode="&#x78;" d="M 481.724,236.612c0,40.647-10.798,78.672-29.48,111.713
		c 9.279-0.256, 17.311,2.059, 23.029,7.76c 16.481,16.481, 6.582,53.038-22.022,81.721c-28.683,28.649-65.274,38.537-81.755,22.022
		c-5.894-5.877-8.209-14.308-7.794-24.018c-32.387,17.789-69.552,27.887-109.016,27.887c-34.913,0-67.891-8.067-97.451-22.181
		c-0.575,7.236-2.89,13.653-7.6,18.301C 133.211,476.348, 96.592,466.495, 67.925,437.794c-28.683-28.683-38.537-65.24-22.056-81.721
		C 49.129,352.831, 53.311,350.868, 57.862,349.622c-19.132-33.331-30.282-71.788-30.282-113.010c0-74.553, 36.159-140.555, 91.705-181.97l-48.105-48.071
		l 27.534-27.597l 54.653,54.619c 30.521-15.218, 64.859-24.053, 101.319-24.053s 70.702,8.846, 101.205,24.053l 54.682-54.619l 27.551,27.597l-48.105,48.071
		C 445.582,96.068, 481.724,162.059, 481.724,236.612z M 65.337,227.015l 32.307,0 c 5.319,0, 9.631,4.312, 9.631,9.597c0,5.365-4.312,9.711-9.631,9.711
		L 65.337,246.323 c 4.841,97.104, 82.648,174.848, 179.797,179.735c0-0.222-0.080-0.302-0.080-0.432l0-35.345 c0-5.302, 4.278-9.631, 9.631-9.631
		c 5.285,0, 9.631,4.346, 9.631,9.631L 264.317,425.626 c0,0.142-0.063,0.222-0.063,0.432c 97.149-4.887, 174.876-82.631, 179.797-179.735l-32.597,0 
		c-5.365,0-9.614-4.346-9.614-9.711c0-5.285, 4.278-9.597, 9.614-9.597l 32.597,0 c-4.921-97.212-82.586-174.848-179.735-179.78l0,33.906 
		c0,5.302-4.346,9.631-9.631,9.631c-5.365,0-9.631-4.346-9.631-9.631l0-33.906 C 147.905,52.167, 70.178,129.832, 65.337,227.015zM 252.945,227.351c 0.353-0.222, 0.865-0.336, 1.741-0.336l 123.711,0 
		c 5.302,0, 9.631,4.312, 9.631,9.597c0,5.365-4.346,9.711-9.631,9.711L 264.317,246.323 L 264.317,350.771 c0,5.319-4.346,9.631-9.631,9.597
		c-5.365,0.034-9.631-4.278-9.631-9.597l0-114.142 C 245.055,231.919, 248.457,228.227, 252.945,227.351z" data-tags="alarm_clock" />
<glyph unicode="&#x63;" d="M 435.866-32.341L 435.866,480.341 L 76.134,120.593C 318.549,120.593, 435.866-32.341, 435.866-32.341z" data-tags="geo_loc_arrow" />
<glyph unicode="&#x76;" d="M 2.133,224c0-140.214, 113.67-253.867, 253.867-253.867c 140.214,0, 253.867,113.653, 253.867,253.867c0,140.197-113.653,253.867-253.867,253.867
		C 115.803,477.867, 2.133,364.197, 2.133,224z M 285.059,294.508c0,11.435, 13.511,0.688, 13.511,0.688l 101.274-68.238c0,0, 8.027-4.511, 0.831-9.21
		c-9.916-6.491-104.567-66.526-104.567-66.526s-11.036-8.346-11.036,2.702c0,11.002,0,28.547,0,28.547l0,81.044 
		C 285.059,263.515, 285.059,285.423, 285.059,294.508z M 139.275,294.508c0,11.435, 13.511,0.688, 13.511,0.688l 101.308-68.238c0,0, 8.010-4.511, 0.785-9.21
		c-9.916-6.491-104.505-66.526-104.505-66.526S 139.275,142.905, 139.275,153.924c0,11.002,0,28.547,0,28.547l0,81.044 C 139.275,263.515, 139.275,285.423, 139.275,294.508z" data-tags="next_player_control" />
<glyph unicode="&#x62;" d="M 256,477.867C 115.786,477.867, 2.133,364.197, 2.133,224c0-140.214, 113.653-253.867, 253.867-253.867c 140.197,0, 253.867,113.653, 253.867,253.867
		C 509.867,364.197, 396.197,477.867, 256,477.867z M 226.941,263.515l0-81.044 c0,0,0-17.573,0-28.547c0-11.036-11.036-2.702-11.036-2.702
		s-94.623,60.046-104.539,66.526c-7.196,4.688, 0.831,9.21, 0.831,9.21l 101.274,68.238c0,0, 13.483,10.729, 13.483-0.688
		C 226.941,285.423, 226.941,263.515, 226.941,263.515z M 372.725,263.515l0-81.044 c0,0,0-17.573,0-28.547c0-11.036-11.082-2.702-11.082-2.702
		s-94.589,60.046-104.505,66.526c-7.214,4.688, 0.785,9.21, 0.785,9.21l 101.308,68.238c0,0, 13.511,10.729, 13.511-0.688
		C 372.725,285.423, 372.725,263.515, 372.725,263.515z" data-tags="previous_player_control" />
<glyph unicode="&#x6e;" d="M 354.782,353.092C 352.819,363.076, 370.961,372.122, 380.006,387.55c 17.954,30.464, 21.606,73.882-13.756,87.262c-62.327,4.898-82.842-32.017-112.538-59.716
		C 232.38,445.269, 196.83,485.803, 148.053,474.795c-60.723-13.687-11.725-106.871, 11.469-121.719C 112.811,351.59, 60.075,356.113, 17.152,350.805
		c0-29.867,0-59.716,0-89.583c 60.518-3.84, 136.994-3.84, 197.53,0c0,22.187,0,44.39,0,66.594c 4.113-5.905, 22.187,0.768, 22.955-2.27
		c0-22.204,0-44.39,0-66.611c 12.271,0, 24.508,0, 36.745,0c0,22.989,0,45.943,0,68.898c 4.13-5.905, 22.187,0.768, 22.989-2.27
		c0-21.436,0-42.871,0-64.307c 60.518-3.84, 136.994-3.84, 197.495,0c0,29.85,0,59.716,0,89.583C 452.693,356.113, 400.742,351.59, 354.782,353.092z
		 M 237.619,355.379c-43.81-9.097-110.558,57.822-82.671,91.87C 206.353,443.102, 246.084,404.224, 237.619,355.379z M 272.043,357.683
		c-2.645,49.749, 41.267,96.119, 91.887,84.958C 365.346,393.711, 321.382,348.382, 272.043,357.683zM 49.323-30.464c 55.091,0, 110.217,0, 165.359,0c0,88.815,0,177.613,0,266.428c-54.374,0-108.698,0-163.055,0
		C 46.234,151.757, 50.825,57.583, 49.323-30.464zM 237.619-30.464c 12.271,0, 24.508,0, 36.745,0c0,88.815,0,177.613,0,266.428c-11.469,0-22.955,0-34.423,0
		C 234.564,151.757, 239.138,57.583, 237.619-30.464zM 297.335-30.464c 55.125,0, 110.234,0, 165.359,0c0,88.815,0,177.613,0,266.428c-54.357,0-108.681,0-163.038,0
		C 294.281,151.757, 298.889,57.583, 297.335-30.464z" data-tags="gift_box" />
<glyph unicode="&#x6d;" d="M 4.864,222.333L 131.794,222.333L 131.794,11.463L 4.864,11.463zM 192.529,436.537L 319.471,436.537L 319.471,11.446L 192.529,11.446zM 380.206,269.887L 507.136,269.887L 507.136,11.463L 380.206,11.463z" data-tags="music_bars" />
<glyph unicode="&#x20;" horiz-adv-x="256" />
</font>
</defs>
</svg>
